<svg width="41" height="37" viewBox="0 0 41 37" fill="none" xmlns="http://www.w3.org/2000/svg">
<path d="M24.84 0.759995C18.02 0.759995 12.22 2.9 9.92 5.9L20.42 16.4C21.84 16.62 23.28 16.76 24.84 16.76C33.68 16.76 40.84 13.18 40.84 8.76C40.84 4.33999 33.68 0.759995 24.84 0.759995ZM8.68 8.92L5.84 11.76L10.84 16.76H0.839996V20.76H10.84L5.84 25.76L8.68 28.6L18.52 18.76L8.68 8.92ZM40.84 12.76C40.84 17.18 33.68 20.76 24.84 20.76C23.52 20.76 22.24 20.66 21.02 20.5L16.08 25.44C18.6 26.26 21.6 26.76 24.84 26.76C33.68 26.76 40.84 23.18 40.84 18.76V12.76ZM40.84 22.76C40.84 27.18 33.68 30.76 24.84 30.76C20.28 30.76 16.18 29.76 13.26 28.26L9.9 31.62C12.2 34.62 18.02 36.76 24.84 36.76C33.68 36.76 40.84 33.18 40.84 28.76" fill="black"/>
</svg>
