<svg width="36" height="36" viewBox="0 0 36 36" fill="none" xmlns="http://www.w3.org/2000/svg">
<path d="M28.5062 0.192471C28.1829 0.339404 27.7348 0.75082 26.192 2.27893L24.2818 4.18908L28.0507 7.95059L31.8123 11.7195L33.7225 9.80931C35.8531 7.67142 36 7.46571 36 6.65022C36 5.84943 35.9192 5.74658 33.0539 2.88871C31.1217 0.963874 30.365 0.265937 30.1225 0.155737C29.645 -0.0646648 29.0205 -0.0499716 28.5062 0.192471Z" fill="black"/>
<path d="M11.0355 17.4349L0 28.4696V32.2385V36H3.7691H7.53086L18.5884 24.9432L29.6459 13.8864L25.8988 10.1396C23.8416 8.0825 22.1371 6.39276 22.115 6.39276C22.093 6.39276 17.1116 11.3591 11.0355 17.4349Z" fill="black"/>
</svg>
