<svg width="40" height="36" viewBox="0 0 40 36" fill="none" xmlns="http://www.w3.org/2000/svg">
<path d="M16 0C7.16 0 0 3.58 0 8C0 12.42 7.16 16 16 16C17 16 18 15.94 19 15.84V13H24.78L22.78 11L29.8 4C27 1.6 21.88 0 16 0ZM29.84 8.16L27 11L32 16H22V20H32L27 25L29.84 27.84L39.68 18L29.84 8.16ZM0 12V18C0 22.42 7.16 26 16 26C18.34 26 20.52 25.7 22.5 25.26L24.76 23H19V19.84C18 19.94 17 20 16 20C7.16 20 0 16.42 0 12ZM0 22V28C0 32.42 7.16 36 16 36C21.88 36 27 34.4 29.8 32L26 28.2C23.22 29.32 19.8 30 16 30C7.16 30 0 26.42 0 22Z" fill="black"/>
</svg>
