<svg width="22" height="22" viewBox="0 0 22 22" fill="none" xmlns="http://www.w3.org/2000/svg">
<path d="M11 8C13.2091 8 15 6.20914 15 4C15 1.79086 13.2091 0 11 0C8.79086 0 7 1.79086 7 4C7 6.20914 8.79086 8 11 8Z" fill="#263B68"/>
<path d="M11 22C13.2091 22 15 20.2091 15 18C15 15.7909 13.2091 14 11 14C8.79086 14 7 15.7909 7 18C7 20.2091 8.79086 22 11 22Z" fill="#263B68"/>
<path d="M4 15C6.20914 15 8 13.2091 8 11C8 8.79086 6.20914 7 4 7C1.79086 7 0 8.79086 0 11C0 13.2091 1.79086 15 4 15Z" fill="#263B68"/>
<path d="M18 15C20.2091 15 22 13.2091 22 11C22 8.79086 20.2091 7 18 7C15.7909 7 14 8.79086 14 11C14 13.2091 15.7909 15 18 15Z" fill="#263B68"/>
</svg>
